<svg width="236" height="236" viewBox="0 0 236 236" fill="none" xmlns="http://www.w3.org/2000/svg">
<g clip-path="url(#clip0_0_3)">
<rect width="236" height="236" fill="#599860"/>
<path d="M90.793 25.7794L67.1683 1.70034C66.5475 1.06768 66.9957 0 67.8821 0H78.0784C78.348 0 78.6061 0.108862 78.7944 0.3019L97.3107 19.293C97.6928 19.6849 97.6888 20.3112 97.3018 20.6982L92.2139 25.7861C91.8207 26.1793 91.1824 26.1762 90.793 25.7794Z" fill="#63A86A"/>
<path d="M65.5 0L91.5 26.5L98 20L78.5 0H65.5Z" fill="#63A86A"/>
<path d="M103.821 12.3206L93.2071 1.70711C92.5771 1.07714 93.0233 0 93.9142 0H104.064C104.342 0 104.608 0.115782 104.797 0.319549L110.318 6.26504C110.694 6.67059 110.67 7.3049 110.263 7.68029L105.206 12.3483C104.812 12.7124 104.2 12.7001 103.821 12.3206Z" fill="#63A86A"/>
<path d="M91.5 0L104.5 13L111 7L104.5 0H91.5Z" fill="#63A86A"/>
<path d="M64.7662 52.2662L14.2071 1.70711C13.5771 1.07714 14.0233 0 14.9142 0H25.5858C25.851 0 26.1054 0.105358 26.2929 0.292894L71.3186 45.3186C71.6989 45.6989 71.7103 46.312 71.3443 46.7062L66.2061 52.2396C65.8204 52.6549 65.167 52.667 64.7662 52.2662Z" fill="#63A86A"/>
<path d="M12.5 0L65.5 53L72 46L26 0H12.5Z" fill="#63A86A"/>
<path d="M77.7929 38.7929L40.7071 1.70711C40.0771 1.07714 40.5233 0 41.4142 0H52.0813C52.3492 0 52.6058 0.107464 52.7938 0.298312L84.3036 32.2929C84.6891 32.6843 84.6867 33.3133 84.2983 33.7017L79.2071 38.7929C78.8166 39.1834 78.1834 39.1834 77.7929 38.7929Z" fill="#63A86A"/>
<path d="M39 0L78.5 39.5L85 33L52.5 0H39Z" fill="#63A86A"/>
<path d="M25.7794 26.707L1.70034 50.3317C1.06768 50.9525 0 50.5043 0 49.6179V39.4216C0 39.152 0.108862 38.8939 0.3019 38.7056L19.293 20.1893C19.6849 19.8072 20.3112 19.8112 20.6982 20.1982L25.7861 25.2861C26.1793 25.6793 26.1762 26.3176 25.7794 26.707Z" fill="#63A86A"/>
<path fill-rule="evenodd" clip-rule="evenodd" d="M26.5 26L0 52V39.4216C0 39.152 0.108862 38.8939 0.3019 38.7056L20 19.5L26.5 26Z" fill="#63A86A"/>
<path d="M12.3206 13.6794L1.70711 24.2929C1.07714 24.9229 0 24.4767 0 23.5858V13.4361C0 13.158 0.115782 12.8925 0.319549 12.7033L6.26504 7.18247C6.67059 6.80588 7.3049 6.83031 7.68029 7.23698L12.3483 12.294C12.7124 12.6884 12.7001 13.2999 12.3206 13.6794Z" fill="#63A86A"/>
<path fill-rule="evenodd" clip-rule="evenodd" d="M13 13L0 26V13.4361C0 13.158 0.115782 12.8925 0.319549 12.7033L7 6.5L13 13Z" fill="#63A86A"/>
<path d="M0.319549 12.7033C0.115782 12.8925 0 13.158 0 13.4361V13L0.319549 12.7033Z" fill="#63A86A"/>
<path d="M52.2662 52.7338L1.70711 103.293C1.07714 103.923 0 103.477 0 102.586V91.9142C0 91.649 0.105358 91.3946 0.292894 91.2071L45.3186 46.1814C45.6989 45.8011 46.312 45.7897 46.7062 46.1557L52.2396 51.2939C52.6549 51.6796 52.667 52.333 52.2662 52.7338Z" fill="#63A86A"/>
<path d="M0 105L53 52L46 45.5L0 91.5V105Z" fill="#63A86A"/>
<path d="M38.7929 39.7071L1.70711 76.7929C1.07714 77.4229 0 76.9767 0 76.0858V65.4187C0 65.1508 0.107464 64.8942 0.298312 64.7062L32.2929 33.1964C32.6843 32.8109 33.3133 32.8133 33.7017 33.2017L38.7929 38.2929C39.1834 38.6834 39.1834 39.3166 38.7929 39.7071Z" fill="#63A86A"/>
<path d="M0 78.5L39.5 39L33 32.5L0 65V78.5Z" fill="#63A86A"/>
<path d="M143.779 90.793L118.7 66.1871C118.311 65.8055 117.689 65.8055 117.3 66.1871L92.2478 90.7663C91.8406 91.1659 91.8496 91.8247 92.2677 92.2129L97.7938 97.3443C98.188 97.7103 98.8011 97.6989 99.1814 97.3186L117.302 79.1982C117.689 78.8112 118.315 78.8072 118.707 79.1893L137.293 97.3107C137.685 97.6928 138.311 97.6888 138.698 97.3018L143.786 92.2139C144.179 91.8207 144.176 91.1824 143.779 90.793Z" fill="#63A86A"/>
<path d="M130.321 103.821L118.707 92.2071C118.317 91.8166 117.683 91.8166 117.293 92.2071L105.707 103.793C105.317 104.183 105.317 104.817 105.707 105.207L110.793 110.293C111.183 110.683 111.817 110.683 112.207 110.293L117.319 105.181C117.699 104.801 118.312 104.79 118.706 105.156L124.265 110.318C124.671 110.694 125.305 110.67 125.68 110.263L130.348 105.206C130.712 104.812 130.7 104.2 130.321 103.821Z" fill="#63A86A"/>
<path d="M170.266 64.7662L118.707 13.2071C118.317 12.8166 117.683 12.8166 117.293 13.2071L66.2071 64.2929C65.8166 64.6834 65.8166 65.3166 66.2071 65.7071L71.789 71.289C72.1811 71.6811 72.8172 71.6793 73.2071 71.2851L117.293 26.7149C117.683 26.3207 118.319 26.3189 118.711 26.711L163.319 71.3186C163.699 71.6989 164.312 71.7103 164.706 71.3443L170.24 66.2061C170.655 65.8204 170.667 65.167 170.266 64.7662Z" fill="#63A86A"/>
<path d="M156.793 77.7929L118.707 39.7071C118.317 39.3166 117.683 39.3166 117.293 39.7071L79.2338 77.7662C78.833 78.167 78.8451 78.8204 79.2604 79.2061L84.7938 84.3443C85.188 84.7103 85.8011 84.6989 86.1814 84.3186L117.298 53.2017C117.687 52.8133 118.316 52.8109 118.707 53.1964L150.293 84.3036C150.684 84.6891 151.313 84.6867 151.702 84.2983L156.793 79.2071C157.183 78.8166 157.183 78.1834 156.793 77.7929Z" fill="#63A86A"/>
<path d="M27.207 143.779L51.8129 118.7C52.1945 118.311 52.1945 117.689 51.8129 117.3L27.2337 92.2478C26.8341 91.8406 26.1753 91.8496 25.7871 92.2677L20.6557 97.7938C20.2897 98.188 20.3011 98.8011 20.6814 99.1814L38.8018 117.302C39.1888 117.689 39.1928 118.315 38.8107 118.707L20.6893 137.293C20.3072 137.685 20.3112 138.311 20.6982 138.698L25.7861 143.786C26.1793 144.179 26.8176 144.176 27.207 143.779Z" fill="#63A86A"/>
<path d="M14.1794 130.321L25.7929 118.707C26.1834 118.317 26.1834 117.683 25.7929 117.293L14.2071 105.707C13.8166 105.317 13.1834 105.317 12.7929 105.707L7.70711 110.793C7.31658 111.183 7.31658 111.817 7.70711 112.207L12.8186 117.319C13.1989 117.699 13.2103 118.312 12.8443 118.706L7.68247 124.265C7.30588 124.671 7.33031 125.305 7.73698 125.68L12.794 130.348C13.1884 130.712 13.7999 130.7 14.1794 130.321Z" fill="#63A86A"/>
<path d="M53.2338 170.266L104.793 118.707C105.183 118.317 105.183 117.683 104.793 117.293L53.7071 66.2071C53.3166 65.8166 52.6834 65.8166 52.2929 66.2071L46.711 71.789C46.3189 72.1811 46.3207 72.8172 46.7149 73.2071L91.2851 117.293C91.6793 117.683 91.6811 118.319 91.289 118.711L46.6814 163.319C46.3011 163.699 46.2897 164.312 46.6557 164.706L51.7939 170.24C52.1796 170.655 52.833 170.667 53.2338 170.266Z" fill="#63A86A"/>
<path d="M40.2071 156.793L78.2929 118.707C78.6834 118.317 78.6834 117.683 78.2929 117.293L40.2338 79.2338C39.833 78.833 39.1796 78.8451 38.7939 79.2604L33.6557 84.7938C33.2897 85.188 33.3011 85.8011 33.6814 86.1814L64.7983 117.298C65.1867 117.687 65.1891 118.316 64.8036 118.707L33.6964 150.293C33.3109 150.684 33.3133 151.313 33.7017 151.702L38.7929 156.793C39.1834 157.183 39.8166 157.183 40.2071 156.793Z" fill="#63A86A"/>
<path d="M92.2206 144.707L117.3 169.313C117.689 169.694 118.311 169.694 118.7 169.313L143.752 144.734C144.159 144.334 144.15 143.675 143.732 143.287L138.206 138.156C137.812 137.79 137.199 137.801 136.819 138.181L118.698 156.302C118.311 156.689 117.685 156.693 117.293 156.311L98.707 138.189C98.3151 137.807 97.6888 137.811 97.3018 138.198L92.2139 143.286C91.8207 143.679 91.8238 144.318 92.2206 144.707Z" fill="#63A86A"/>
<path d="M105.679 131.679L117.293 143.293C117.683 143.683 118.317 143.683 118.707 143.293L130.293 131.707C130.683 131.317 130.683 130.683 130.293 130.293L125.207 125.207C124.817 124.817 124.183 124.817 123.793 125.207L118.681 130.319C118.301 130.699 117.688 130.71 117.294 130.344L111.735 125.182C111.329 124.806 110.695 124.83 110.32 125.237L105.652 130.294C105.288 130.688 105.3 131.3 105.679 131.679Z" fill="#63A86A"/>
<path d="M65.7338 170.734L117.293 222.293C117.683 222.683 118.317 222.683 118.707 222.293L169.793 171.207C170.183 170.817 170.183 170.183 169.793 169.793L164.211 164.211C163.819 163.819 163.183 163.821 162.793 164.215L118.707 208.785C118.317 209.179 117.681 209.181 117.289 208.789L72.6814 164.181C72.3011 163.801 71.688 163.79 71.2938 164.156L65.7604 169.294C65.3451 169.68 65.333 170.333 65.7338 170.734Z" fill="#63A86A"/>
<path d="M79.2071 157.707L117.293 195.793C117.683 196.183 118.317 196.183 118.707 195.793L156.766 157.734C157.167 157.333 157.155 156.68 156.74 156.294L151.206 151.156C150.812 150.79 150.199 150.801 149.819 151.181L118.702 182.298C118.313 182.687 117.684 182.689 117.293 182.304L85.7071 151.196C85.3157 150.811 84.6867 150.813 84.2983 151.202L79.2071 156.293C78.8166 156.683 78.8166 157.317 79.2071 157.707Z" fill="#63A86A"/>
<path d="M209.293 92.7206L184.687 117.8C184.306 118.189 184.306 118.811 184.687 119.2L209.266 144.252C209.666 144.659 210.325 144.65 210.713 144.232L215.844 138.706C216.21 138.312 216.199 137.699 215.819 137.319L197.698 119.198C197.311 118.811 197.307 118.185 197.689 117.793L215.811 99.207C216.193 98.8151 216.189 98.1888 215.802 97.8018L210.714 92.7139C210.321 92.3207 209.682 92.3238 209.293 92.7206Z" fill="#63A86A"/>
<path d="M222.321 106.179L210.707 117.793C210.317 118.183 210.317 118.817 210.707 119.207L222.293 130.793C222.683 131.183 223.317 131.183 223.707 130.793L228.793 125.707C229.183 125.317 229.183 124.683 228.793 124.293L223.681 119.181C223.301 118.801 223.29 118.188 223.656 117.794L228.818 112.235C229.194 111.829 229.17 111.195 228.763 110.82L223.706 106.152C223.312 105.788 222.7 105.8 222.321 106.179Z" fill="#63A86A"/>
<path d="M183.266 66.2338L131.707 117.793C131.317 118.183 131.317 118.817 131.707 119.207L182.793 170.293C183.183 170.683 183.817 170.683 184.207 170.293L189.789 164.711C190.181 164.319 190.179 163.683 189.785 163.293L145.215 119.207C144.821 118.817 144.819 118.181 145.211 117.789L189.819 73.1814C190.199 72.8011 190.21 72.188 189.844 71.7938L184.706 66.2604C184.32 65.8451 183.667 65.833 183.266 66.2338Z" fill="#63A86A"/>
<path d="M196.293 79.7071L158.207 117.793C157.817 118.183 157.817 118.817 158.207 119.207L196.266 157.266C196.667 157.667 197.32 157.655 197.706 157.24L202.844 151.706C203.21 151.312 203.199 150.699 202.819 150.319L171.702 119.202C171.313 118.813 171.311 118.184 171.696 117.793L202.804 86.2071C203.189 85.8157 203.187 85.1867 202.798 84.7983L197.707 79.7071C197.317 79.3166 196.683 79.3166 196.293 79.7071Z" fill="#63A86A"/>
<path d="M217.181 215.319L235.707 196.793C235.895 196.605 236 196.351 236 196.086V185.882C236 184.996 234.932 184.548 234.3 185.168L210.248 208.766C209.841 209.166 209.85 209.825 210.268 210.213L215.794 215.344C216.188 215.71 216.801 215.699 217.181 215.319Z" fill="#63A86A"/>
<path d="M236 196.5L216.5 216L209.5 209.5L236 183.5V196.5Z" fill="#63A86A"/>
<path d="M230.207 228.293L235.707 222.793C235.895 222.605 236 222.351 236 222.086V211.914C236 211.023 234.923 210.577 234.293 211.207L223.707 221.793C223.317 222.183 223.317 222.817 223.707 223.207L228.793 228.293C229.183 228.683 229.817 228.683 230.207 228.293Z" fill="#63A86A"/>
<path d="M236 222.5L229.5 229L223 222.5L236 209.5V222.5Z" fill="#63A86A"/>
<path d="M191.207 189.285L235.711 144.292C235.896 144.105 236 143.852 236 143.589V132.914C236 132.023 234.923 131.577 234.293 132.207L184.207 182.293C183.817 182.683 183.817 183.317 184.207 183.707L189.789 189.289C190.181 189.681 190.817 189.679 191.207 189.285Z" fill="#63A86A"/>
<path d="M236 144L190.5 190L183.5 183L236 130.5V144Z" fill="#63A86A"/>
<path d="M204.181 202.319L235.707 170.793C235.895 170.605 236 170.351 236 170.086V159.414C236 158.523 234.923 158.077 234.293 158.707L197.234 195.766C196.833 196.167 196.845 196.82 197.26 197.206L202.794 202.344C203.188 202.71 203.801 202.699 204.181 202.319Z" fill="#63A86A"/>
<path d="M236 170.5L203.5 203L196.5 196.5L236 157V170.5Z" fill="#63A86A"/>
<path d="M138.681 217.181L157.207 235.707C157.395 235.895 157.649 236 157.914 236H168.118C169.004 236 169.452 234.932 168.832 234.3L145.234 210.248C144.834 209.841 144.175 209.85 143.787 210.268L138.656 215.794C138.29 216.188 138.301 216.801 138.681 217.181Z" fill="#63A86A"/>
<path d="M157.5 236L138 216.5L144.5 209.5L170.5 236H157.5Z" fill="#63A86A"/>
<path d="M125.707 230.207L131.207 235.707C131.395 235.895 131.649 236 131.914 236H142.086C142.977 236 143.423 234.923 142.793 234.293L132.207 223.707C131.817 223.317 131.183 223.317 130.793 223.707L125.707 228.793C125.317 229.183 125.317 229.817 125.707 230.207Z" fill="#63A86A"/>
<path d="M131.5 236L125 229.5L131.5 223L144.5 236H131.5Z" fill="#63A86A"/>
<path d="M164.715 191.207L209.708 235.711C209.895 235.896 210.148 236 210.411 236H221.086C221.977 236 222.423 234.923 221.793 234.293L171.707 184.207C171.317 183.817 170.683 183.817 170.293 184.207L164.711 189.789C164.319 190.181 164.321 190.817 164.715 191.207Z" fill="#63A86A"/>
<path d="M210 236L164 190.5L171 183.5L223.5 236H210Z" fill="#63A86A"/>
<path d="M151.681 204.181L183.207 235.707C183.395 235.895 183.649 236 183.914 236H194.586C195.477 236 195.923 234.923 195.293 234.293L158.234 197.234C157.833 196.833 157.18 196.845 156.794 197.26L151.656 202.794C151.29 203.188 151.301 203.801 151.681 204.181Z" fill="#63A86A"/>
<path d="M183.5 236L151 203.5L157.5 196.5L197 236H183.5Z" fill="#63A86A"/>
<path d="M18.8186 215.319L0.292892 196.793C0.105356 196.605 0 196.351 0 196.086V185.882C0 184.996 1.06768 184.548 1.70034 185.168L25.7522 208.766C26.1594 209.166 26.1504 209.825 25.7323 210.213L20.2062 215.344C19.812 215.71 19.1989 215.699 18.8186 215.319Z" fill="#63A86A"/>
<path d="M0 196.5L19.5 216L26.5 209.5L0 183.5V196.5Z" fill="#63A86A"/>
<path d="M5.79289 228.293L0.292893 222.793C0.105357 222.605 0 222.351 0 222.086V211.914C0 211.023 1.07714 210.577 1.70711 211.207L12.2929 221.793C12.6834 222.183 12.6834 222.817 12.2929 223.207L7.20711 228.293C6.81658 228.683 6.18342 228.683 5.79289 228.293Z" fill="#63A86A"/>
<path d="M0 222.5L6.5 229L13 222.5L0 209.5V222.5Z" fill="#63A86A"/>
<path d="M44.7929 189.285L0.28904 144.292C0.103863 144.105 0 143.852 0 143.589V132.914C0 132.023 1.07715 131.577 1.70711 132.207L51.7929 182.293C52.1834 182.683 52.1834 183.317 51.7929 183.707L46.211 189.289C45.8189 189.681 45.1828 189.679 44.7929 189.285Z" fill="#63A86A"/>
<path d="M0 144L45.5 190L52.5 183L0 130.5V144Z" fill="#63A86A"/>
<path d="M31.8186 202.319L0.292892 170.793C0.105358 170.605 0 170.351 0 170.086V159.414C0 158.523 1.07714 158.077 1.70711 158.707L38.7662 195.766C39.167 196.167 39.1549 196.82 38.7396 197.206L33.2062 202.344C32.812 202.71 32.1989 202.699 31.8186 202.319Z" fill="#63A86A"/>
<path d="M0 170.5L32.5 203L39.5 196.5L0 157V170.5Z" fill="#63A86A"/>
<path d="M97.3186 217.181L78.7929 235.707C78.6054 235.895 78.351 236 78.0858 236H67.8821C66.9957 236 66.5475 234.932 67.1683 234.3L90.7663 210.248C91.1659 209.841 91.8247 209.85 92.2129 210.268L97.3443 215.794C97.7103 216.188 97.6989 216.801 97.3186 217.181Z" fill="#63A86A"/>
<path d="M78.5 236L98 216.5L91.5 209.5L65.5 236H78.5Z" fill="#63A86A"/>
<path d="M110.293 230.207L104.793 235.707C104.605 235.895 104.351 236 104.086 236H93.9142C93.0233 236 92.5771 234.923 93.2071 234.293L103.793 223.707C104.183 223.317 104.817 223.317 105.207 223.707L110.293 228.793C110.683 229.183 110.683 229.817 110.293 230.207Z" fill="#63A86A"/>
<path d="M104.5 236L111 229.5L104.5 223L91.5 236H104.5Z" fill="#63A86A"/>
<path d="M71.2851 191.207L26.2922 235.711C26.105 235.896 25.8523 236 25.589 236H14.9142C14.0233 236 13.5771 234.923 14.2071 234.293L64.2929 184.207C64.6834 183.817 65.3166 183.817 65.7071 184.207L71.289 189.789C71.6811 190.181 71.6793 190.817 71.2851 191.207Z" fill="#63A86A"/>
<path d="M26 236L72 190.5L65 183.5L12.5 236H26Z" fill="#63A86A"/>
<path d="M84.3186 204.181L52.7929 235.707C52.6054 235.895 52.351 236 52.0858 236H41.4142C40.5233 236 40.0771 234.923 40.7071 234.293L77.7662 197.234C78.167 196.833 78.8204 196.845 79.2061 197.26L84.3443 202.794C84.7103 203.188 84.6989 203.801 84.3186 204.181Z" fill="#63A86A"/>
<path d="M52.5 236L85 203.5L78.5 196.5L39 236H52.5Z" fill="#63A86A"/>
<path d="M145.207 25.7794L168.832 1.70034C169.452 1.06768 169.004 0 168.118 0H157.922C157.652 0 157.394 0.108862 157.206 0.3019L138.689 19.293C138.307 19.6849 138.311 20.3112 138.698 20.6982L143.786 25.7861C144.179 26.1793 144.818 26.1762 145.207 25.7794Z" fill="#63A86A"/>
<path d="M170.5 0L144.5 26.5L138 20L157.5 0H170.5Z" fill="#63A86A"/>
<path d="M132.179 12.3206L142.793 1.70711C143.423 1.07714 142.977 0 142.086 0H131.936C131.658 0 131.392 0.115782 131.203 0.319549L125.682 6.26504C125.306 6.67059 125.33 7.3049 125.737 7.68029L130.794 12.3483C131.188 12.7124 131.8 12.7001 132.179 12.3206Z" fill="#63A86A"/>
<path d="M144.5 0L131.5 13L125 7L131.5 0H144.5Z" fill="#63A86A"/>
<path d="M171.234 52.2662L221.793 1.70711C222.423 1.07714 221.977 0 221.086 0H210.414C210.149 0 209.895 0.105358 209.707 0.292894L164.681 45.3186C164.301 45.6989 164.29 46.312 164.656 46.7062L169.794 52.2396C170.18 52.6549 170.833 52.667 171.234 52.2662Z" fill="#63A86A"/>
<path d="M223.5 0L170.5 53L164 46L210 0H223.5Z" fill="#63A86A"/>
<path d="M158.207 38.7929L195.293 1.70711C195.923 1.07714 195.477 0 194.586 0H183.919C183.651 0 183.394 0.107464 183.206 0.298312L151.696 32.2929C151.311 32.6843 151.313 33.3133 151.702 33.7017L156.793 38.7929C157.183 39.1834 157.817 39.1834 158.207 38.7929Z" fill="#63A86A"/>
<path d="M197 0L157.5 39.5L151 33L183.5 0H197Z" fill="#63A86A"/>
<path d="M210.221 26.707L234.3 50.3317C234.932 50.9525 236 50.5043 236 49.6179V39.4216C236 39.152 235.891 38.8939 235.698 38.7056L216.707 20.1893C216.315 19.8072 215.689 19.8112 215.302 20.1982L210.214 25.2861C209.821 25.6793 209.824 26.3176 210.221 26.707Z" fill="#63A86A"/>
<path fill-rule="evenodd" clip-rule="evenodd" d="M209.5 26L236 52V39.4216C236 39.152 235.891 38.8939 235.698 38.7056L216 19.5L209.5 26Z" fill="#63A86A"/>
<path d="M223.679 13.6794L234.293 24.2929C234.923 24.9229 236 24.4767 236 23.5858V13.4361C236 13.158 235.884 12.8925 235.68 12.7033L229.735 7.18247C229.329 6.80588 228.695 6.83031 228.32 7.23698L223.652 12.294C223.288 12.6884 223.3 13.2999 223.679 13.6794Z" fill="#63A86A"/>
<path fill-rule="evenodd" clip-rule="evenodd" d="M223 13L236 26V13.4361C236 13.158 235.884 12.8925 235.68 12.7033L229 6.5L223 13Z" fill="#63A86A"/>
<path d="M235.68 12.7033C235.884 12.8925 236 13.158 236 13.4361V13L235.68 12.7033Z" fill="#63A86A"/>
<path d="M183.734 52.7338L234.293 103.293C234.923 103.923 236 103.477 236 102.586V91.9142C236 91.649 235.895 91.3946 235.707 91.2071L190.681 46.1814C190.301 45.8011 189.688 45.7897 189.294 46.1557L183.76 51.2939C183.345 51.6796 183.333 52.333 183.734 52.7338Z" fill="#63A86A"/>
<path d="M236 105L183 52L190 45.5L236 91.5V105Z" fill="#63A86A"/>
<path d="M197.207 39.7071L234.293 76.7929C234.923 77.4229 236 76.9767 236 76.0858V65.4187C236 65.1508 235.893 64.8942 235.702 64.7062L203.707 33.1964C203.316 32.8109 202.687 32.8133 202.298 33.2017L197.207 38.2929C196.817 38.6834 196.817 39.3166 197.207 39.7071Z" fill="#63A86A"/>
<path d="M236 78.5L196.5 39L203 32.5L236 65V78.5Z" fill="#63A86A"/>
</g>
<defs>
<clipPath id="clip0_0_3">
<rect width="236" height="236" fill="white"/>
</clipPath>
</defs>
</svg>
