<svg width="150" height="150" viewBox="0 0 150 150" fill="none" xmlns="http://www.w3.org/2000/svg">
<path d="M88.5 99C93.4474 101.178 102.5 104.5 102.5 104.5L77.5 135L71 136.5L58.5 117L45 104.5C50.5009 102.705 54.0175 101.212 61.5 99H88.5Z" fill="url(#paint0_radial_16_2)"/>
<path d="M120 112L117 102.5L116 101H103L101 104.5C94.8985 108.702 91.5975 111.295 86 116.5C80.4062 122.231 78.5 129 73 134C68.2644 130.451 65.5 123.5 60 116.5C54.6115 111.806 51.2586 109.18 45 104.5L44.5 103.5L32.5 101L32 103.5C29.5957 106.16 29.3144 107.208 29 109L30 108C28.5707 117.077 25.7807 119.096 21 123H24C21.5538 125.178 20.4875 126.387 19.5 128.5L22 127C16.6939 135.929 13.9503 140.955 10 150H139.5L128 129H131C125.901 126.067 124.503 123.464 122.5 118.5C123.942 119.19 124.698 119.369 126 119.5C126.176 118.432 125.106 117.405 123 115.5L124 115L120 112Z" fill="url(#paint1_radial_16_2)"/>
<path d="M111 42C107.88 41.1537 106.918 42.3032 106 46L43.5 46C42.6489 41.6999 41.1877 41.7349 38.5 42L25 47C22.5218 48.1457 22.2193 49.6988 23.5 54C0 75 25.5 121 61.5 99H88.5C122.5 120 151 76.5 125.5 53.5C127.701 50.0913 127.626 48.6203 124.5 47L111 42Z" fill="url(#paint2_linear_16_2)" stroke="black" stroke-width="0.5" stroke-linecap="round" stroke-linejoin="round"/>
<path d="M92 36.5C87.8025 34.0748 85.2722 32.8828 80.5 31L83 30L81.5 29.5C90.5 28.5 83 15.5 75 28.5C72.0522 23.7013 70.4058 22.228 67.5 25.5C69.6058 25.9563 70.3358 26.4636 70.5 28C69.122 27.1698 68.3534 26.861 67 27L71.5 30.5C63.1639 33.206 58.6428 35.1868 51 40H49L49.5 41.5L49.4729 41.5102C47.772 42.1545 46.81 42.519 45.5 43.5L47 44L45.5 46H54C53.4064 46.9269 52.9633 47.3608 52 48L56 48L57.5 50V48C60.0119 47.6772 61.2198 47.244 63 46H84C84.4179 47.444 84.6863 48.2463 86 49.5C86.9304 48.3318 87.3919 47.6421 87.5 46L95 46L101.5 49L99.5 46L103.5 46C101.409 41.6452 99.2082 40.2337 95 38L96 36.5H92Z" fill="url(#paint3_radial_16_2)"/>
<path d="M36.65 92.4C35.5833 92.4 34.8333 92.1833 34.4 91.75C33.9667 91.3167 33.75 90.6167 33.75 89.65V60.95C33.75 60.2833 34 59.7167 34.5 59.25C35 58.75 35.5667 58.5 36.2 58.5H44.7C47.1 58.5 49.15 58.9167 50.85 59.75C52.5833 60.55 53.8833 61.6333 54.75 63C55.6167 64.3333 56.05 65.7833 56.05 67.35C56.05 69.85 55.2833 71.9333 53.75 73.6C55.45 74.4 56.7167 75.4667 57.55 76.8C58.3833 78.1 58.8 79.7167 58.8 81.65C58.8 85.1167 56.95 87.7833 53.25 89.65C49.55 91.4833 44.0167 92.4 36.65 92.4ZM46.4 72.05C47.7667 72.05 48.8833 71.5833 49.75 70.65C50.65 69.6833 51.1 68.6 51.1 67.4C51.1 66.2333 50.5333 65.2667 49.4 64.5C48.3 63.7 46.7333 63.3 44.7 63.3H38.75V72.05H46.4ZM38.75 87.65C43.1833 87.5833 46.8 87.05 49.6 86.05C52.4333 85.05 53.85 83.5833 53.85 81.65C53.85 80.2167 53.2 79.0667 51.9 78.2C50.6 77.3 48.7667 76.85 46.4 76.85H38.75V87.65Z" fill="black"/>
<mask id="mask0_16_2" style="mask-type:alpha" maskUnits="userSpaceOnUse" x="91" y="58" width="25" height="35">
<path d="M103.5 92.3C100.633 92.3 98.1333 91.6667 96 90.4C93.9 89.1333 92.4167 87.5833 91.55 85.75C91.1833 84.95 91 84.3 91 83.8C91 83.1 91.25 82.5167 91.75 82.05C92.25 81.55 92.85 81.3 93.55 81.3C94.15 81.3 94.6667 81.4667 95.1 81.8C95.5333 82.1333 95.85 82.5833 96.05 83.15C96.5833 84.5833 97.5667 85.6833 99 86.45C100.433 87.2167 101.967 87.6 103.6 87.6C105.667 87.6 107.367 87.1167 108.7 86.15C110.067 85.15 110.75 83.9333 110.75 82.5C110.75 81.4 110.2 80.4 109.1 79.5C108.033 78.6 106.2 77.7833 103.6 77.05C100.233 76.1167 97.5833 74.9167 95.65 73.45C93.7167 71.95 92.75 69.9 92.75 67.3C92.75 65.5333 93.2167 63.9667 94.15 62.6C95.1167 61.2 96.4833 60.1167 98.25 59.35C100.017 58.5833 102.083 58.2 104.45 58.2C107.85 58.2 110.517 58.8667 112.45 60.2C114.417 61.5333 115.4 63.3167 115.4 65.55C115.4 66.2833 115.167 66.9 114.7 67.4C114.233 67.9 113.65 68.15 112.95 68.15C112.35 68.15 111.833 67.95 111.4 67.55C110.967 67.15 110.717 66.65 110.65 66.05C110.517 65.1167 109.9 64.35 108.8 63.75C107.7 63.1167 106.25 62.8 104.45 62.8C102.217 62.8 100.517 63.1833 99.35 63.95C98.1833 64.6833 97.6 65.6833 97.6 66.95C97.6 68.1167 98.2 69.1 99.4 69.9C100.6 70.7 102.567 71.5 105.3 72.3C108.667 73.2667 111.217 74.5667 112.95 76.2C114.683 77.8333 115.55 79.85 115.55 82.25C115.55 84.1167 115 85.8167 113.9 87.35C112.8 88.8833 111.317 90.1 109.45 91C107.617 91.8667 105.633 92.3 103.5 92.3Z" fill="black"/>
</mask>
<g mask="url(#mask0_16_2)">
<rect x="89" y="55" width="29" height="37" fill="url(#paint4_linear_16_2)"/>
</g>
<defs>
<radialGradient id="paint0_radial_16_2" cx="0" cy="0" r="1" gradientUnits="userSpaceOnUse" gradientTransform="translate(73 124) rotate(-90) scale(30 38.6495)">
<stop stop-color="#F9C12E"/>
<stop offset="1" stop-color="#B16F00"/>
</radialGradient>
<radialGradient id="paint1_radial_16_2" cx="0" cy="0" r="1" gradientUnits="userSpaceOnUse" gradientTransform="translate(75 128.5) rotate(-90) scale(44 53.2176)">
<stop stop-color="#8DC500"/>
<stop offset="1" stop-color="#B3E756"/>
</radialGradient>
<linearGradient id="paint2_linear_16_2" x1="75" y1="47" x2="75" y2="98.5" gradientUnits="userSpaceOnUse">
<stop stop-color="#FFFFFA"/>
<stop offset="1" stop-color="#CDCAC8"/>
</linearGradient>
<radialGradient id="paint3_radial_16_2" cx="0" cy="0" r="1" gradientUnits="userSpaceOnUse" gradientTransform="translate(75 46.5) rotate(-90) scale(16.5 35.1303)">
<stop stop-color="#86C301"/>
<stop offset="1" stop-color="#C2F166"/>
</radialGradient>
<linearGradient id="paint4_linear_16_2" x1="113.5" y1="59.5" x2="97.5" y2="93.5" gradientUnits="userSpaceOnUse">
<stop offset="0.4" stop-color="#FA5C6B"/>
<stop offset="0.6" stop-color="#3590FA"/>
</linearGradient>
</defs>
</svg>
